<?xml version="1.0" encoding="utf-8"?>
<!-- Generator: Adobe Illustrator 18.0.0, SVG Export Plug-In . SVG Version: 6.00 Build 0)  -->
<!DOCTYPE svg PUBLIC "-//W3C//DTD SVG 1.1//EN" "http://www.w3.org/Graphics/SVG/1.1/DTD/svg11.dtd">
<svg version="1.1" id="Layer_1" xmlns="http://www.w3.org/2000/svg" xmlns:xlink="http://www.w3.org/1999/xlink" x="0px" y="0px"
	 viewBox="0 0 40 40" enable-background="new 0 0 40 40" xml:space="preserve">
<circle fill="#4285F4" cx="20" cy="20" r="20"/>
<path fill="#FFFFFF" fill-opacity="0.7" d="M20.1,18.9c-0.1,0.4-0.3,0.8-0.3,1.4c0,1.2,0.7,1.8,1.3,2.4c-1.7,0.1-4.8,0.4-7.2,1.9
	c-2.2,1.3-2.9,3.2-2.9,4.6c0,2.8,2.7,5.3,8.1,5.3c6.5,0,9.9-3.5,9.9-7.1c0-2.6-1.5-3.9-3.2-5.3l-1.4-1c-0.4-0.3-1.1-0.8-1.1-1.6
	c0-0.8,0.6-1.5,1.1-1.8c1.6-1.3,3.2-2.6,3.2-5.4c0-2.6-1.6-4-2.5-4.8h2.1l1.6-1.6V5.6l-7.7,0.2c-5.4,0-8.2,3.4-8.2,7.1
	c0,2.9,2.2,6,6.2,6C19.4,18.9,20.1,18.9,20.1,18.9z M20.8,17.8c-3.1,0-4.8-3.8-4.8-6.7c0-2.7,1.7-4,3.4-4c3.3,0,5.1,4.3,5.1,6.9
	C24.5,17.2,21.9,17.8,20.8,17.8z M20.9,32.8c-4,0-6.7-1.9-6.7-4.6c0-2.7,2.5-3.6,3.3-3.9c1.6-0.5,3.6-0.6,3.9-0.6c0.4,0,0.6,0,0.9,0
	c2.9,2,4.1,3,4.1,5C26.4,30.9,24.5,32.8,20.9,32.8z"/>
</svg>
