<?xml version="1.0" encoding="UTF-8" standalone="no"?>
<svg width="80px" height="67px" viewBox="0 0 80 67" version="1.1" xmlns="http://www.w3.org/2000/svg" xmlns:xlink="http://www.w3.org/1999/xlink" xmlns:sketch="http://www.bohemiancoding.com/sketch/ns">
    <!-- Generator: Sketch 3.4.2 (15855) - http://www.bohemiancoding.com/sketch -->
    <title>installed</title>
    <desc>Created with Sketch.</desc>
    <defs></defs>
    <g id="Page-1" stroke="none" stroke-width="1" fill="none" fill-rule="evenodd" sketch:type="MSPage">
        <g id="Artboard" sketch:type="MSArtboardGroup" fill="#BFBEBF">
            <path d="M5.17,0.106 C2.319,0.106 0,2.419 0,5.262 L0,52.205 C0,55.05 2.319,57.361 5.17,57.361 L32.108,57.361 C31.964,63.476 29.801,64.755 22.26,64.755 L21.648,64.755 L21.648,66.942 L58.35,66.942 L58.35,64.755 L57.737,64.755 C50.196,64.755 48.032,63.476 47.889,57.361 L74.828,57.361 C77.681,57.361 80,55.05 80,52.205 L80,5.262 C80,2.419 77.681,0.106 74.828,0.106 L5.17,0.106 Z M76.776,42.8151464 L3,42.8151464 L3,6.84945347 C3,4.78603528 4.68384057,3.106 6.75391802,3.106 L73.0211307,3.106 C75.0921594,3.106 76.776,4.78603528 76.776,6.84945347 L76.776,42.8151464 L76.776,42.8151464 Z" id="installed" sketch:type="MSShapeGroup"></path>
        </g>
    </g>
</svg>